<?xml version="1.0" standalone="no"?>
<!DOCTYPE svg PUBLIC "-//W3C//DTD SVG 20010904//EN"
 "http://www.w3.org/TR/2001/REC-SVG-20010904/DTD/svg10.dtd">
<svg version="1.0" xmlns="http://www.w3.org/2000/svg"
 width="70.000000pt" height="70.000000pt" viewBox="0 0 70.000000 70.000000"
 preserveAspectRatio="xMidYMid meet">
<metadata>
Created by potrace 1.14, written by Peter Selinger 2001-2017
</metadata>
<g transform="translate(0.000000,70.000000) scale(0.100000,-0.100000)"
fill="#000000" stroke="none">
<path d="M193 670 c-79 -42 -120 -76 -158 -133 l-35 -52 0 -145 c0 -143 1
-147 28 -191 33 -51 98 -110 147 -133 47 -23 303 -23 350 0 49 23 114 82 147
133 27 44 28 48 28 191 l0 145 -35 53 c-39 57 -92 100 -169 138 -43 21 -64 24
-150 23 -91 0 -106 -3 -153 -29z m297 -303 c0 -173 -4 -187 -47 -187 -28 0
-30 16 -3 25 19 6 20 15 20 166 0 135 2 159 15 159 13 0 15 -25 15 -163z
m-145 134 c-6 -5 -19 -11 -29 -13 -24 -4 -41 -31 -33 -52 4 -10 18 -16 41 -16
19 0 38 -4 41 -10 4 -6 -10 -10 -34 -10 -50 0 -52 -14 -8 -51 39 -33 30 -51
-10 -19 l-28 22 -3 -91 c-3 -106 -22 -124 -22 -22 0 39 -4 72 -9 75 -4 3 -22
-12 -40 -34 -31 -38 -51 -51 -51 -31 0 5 15 24 33 43 43 45 69 86 62 98 -3 6
-24 10 -46 10 -22 0 -39 5 -39 11 0 7 12 10 33 7 42 -7 57 -1 57 22 0 23 -18
35 -47 31 -15 -1 -23 3 -23 13 0 11 13 16 48 19 97 7 116 7 107 -2z m68 -131
c1 -57 -3 -85 -11 -88 -9 -3 -12 21 -12 88 0 64 3 91 11 88 7 -2 12 -35 12
-88z"/>
</g>
</svg>
