<svg version="1.1" id="Layer_1" xmlns="http://www.w3.org/2000/svg" xmlns:xlink="http://www.w3.org/1999/xlink" x="0px" y="0px"
	 width="100%" viewBox="0 0 320 100" enable-background="new 0 0 320 100" xml:space="preserve">
<path fill="#FEFFFF" opacity="1.000000" stroke="none" 
	d="
M217.000000,101.000000 
	C144.666687,101.000000 72.833374,101.000000 1.000048,101.000000 
	C1.000032,67.666695 1.000032,34.333397 1.000016,1.000071 
	C107.666603,1.000047 214.333206,1.000047 320.999878,1.000023 
	C320.999908,34.333260 320.999908,67.666519 320.999939,100.999893 
	C286.500000,101.000000 252.000000,101.000000 217.000000,101.000000 
M73.506241,64.019073 
	C73.506241,64.019073 73.913071,64.014030 74.373718,64.492813 
	C75.090393,65.767746 75.807068,67.042671 76.626236,68.499947 
	C78.370476,67.865158 80.148056,67.614616 81.422585,66.678886 
	C85.019135,64.038399 88.399323,64.374100 92.467667,65.825081 
	C96.580574,67.291954 101.138962,67.509720 105.578079,68.287971 
	C106.183220,65.884674 106.614418,64.172203 107.078110,62.330677 
	C101.558136,61.423538 96.284462,60.556873 90.651230,59.631123 
	C91.550453,57.017574 91.853897,54.051380 92.763878,53.851883 
	C96.688835,52.991428 100.791542,52.941818 104.668350,52.610817 
	C104.668350,46.083614 104.668350,39.857029 104.668350,33.641125 
	C100.734009,33.405567 97.167412,33.192024 93.600807,32.978485 
	C93.592651,32.188496 93.584488,31.398506 93.576324,30.608517 
	C97.955635,30.416073 102.334946,30.223629 107.030441,30.017292 
	C106.945366,28.309078 106.868195,26.759678 106.796890,25.327948 
	C96.243210,25.327948 86.111290,25.327948 75.472366,24.804081 
	C73.839241,24.183357 72.206116,23.562635 70.988403,23.099804 
	C68.716812,28.231491 67.164345,33.231701 64.426865,37.465767 
	C62.100609,41.063797 61.717358,43.908047 64.243141,47.284149 
	C65.050392,46.772205 65.844849,46.268372 67.134422,45.450542 
	C67.134422,53.564274 67.134422,60.990002 67.134422,68.638138 
	C69.139870,68.638138 70.876167,68.638138 72.755791,68.638138 
	C72.882126,66.939873 72.990746,65.479691 73.506241,64.019073 
M30.214565,35.471088 
	C28.258646,29.274494 34.482723,30.292339 37.869305,27.566950 
	C35.855091,26.150543 34.096672,23.914686 32.743809,24.137810 
	C27.249479,25.043964 21.879635,26.704920 16.181671,28.159578 
	C16.760239,29.765697 17.302898,31.272139 17.885843,32.890408 
	C19.960888,32.639320 21.748184,32.423050 23.946930,32.156990 
	C24.644182,39.450130 18.302761,34.839870 16.202330,37.106956 
	C16.202330,38.576088 16.202330,40.163113 16.202330,41.867413 
	C18.442509,41.977810 20.392454,42.073902 23.153358,42.209961 
	C21.262518,45.485149 20.106834,48.776173 17.891502,51.021889 
	C14.572652,54.386253 15.231121,57.070454 18.088810,60.680622 
	C20.084330,57.777031 21.871212,55.177021 24.284897,51.664974 
	C24.284897,57.943497 24.284897,63.036835 24.284897,68.167389 
	C26.349575,68.167389 28.096178,68.167389 30.367229,68.167389 
	C30.367229,62.365932 30.367229,56.894318 30.367229,50.850632 
	C32.090893,52.784496 33.279343,54.117882 34.896042,55.931740 
	C35.921135,53.838425 36.748764,52.148357 37.409389,50.799320 
	C34.937965,47.900860 32.839962,45.440342 30.141630,42.275764 
	C33.152748,42.086975 35.061111,41.967327 37.105736,41.839134 
	C37.105736,39.974915 37.105736,38.277130 37.105736,36.673534 
	C34.721340,36.482666 32.742275,36.324245 30.214565,35.471088 
M155.004791,39.563240 
	C154.851547,37.190392 155.647247,33.802612 151.805862,34.337994 
	C150.651001,34.498947 149.199463,37.682503 149.123840,39.532089 
	C148.818344,47.002979 148.877045,54.496910 149.079086,61.974827 
	C149.131302,63.907207 150.194183,65.812279 150.792816,67.729897 
	C152.672348,67.128662 154.551865,66.527428 156.836823,65.796509 
	C159.947571,67.957626 165.277542,69.056641 167.806198,67.388397 
	C171.514420,64.941925 173.572479,61.514198 173.031616,56.834576 
	C172.860901,55.357475 173.050522,53.842422 172.992615,52.347939 
	C172.767441,46.537228 168.934021,42.711716 163.145615,43.096294 
	C160.555038,43.268410 158.035461,44.508923 155.004883,45.406364 
	C155.004883,43.689720 155.004883,42.062447 155.004791,39.563240 
M310.002502,52.599438 
	C309.235931,45.526608 303.629395,41.291920 296.928711,42.494144 
	C291.835358,43.407986 288.070953,46.113529 287.272095,51.143311 
	C286.450958,56.313213 285.861877,62.063824 290.851044,65.838463 
	C295.546387,69.390808 300.907043,68.956734 305.842316,66.405930 
	C307.493561,65.552452 309.690399,62.268753 309.229462,61.447289 
	C307.644409,58.622402 305.546844,60.456898 303.513397,61.850529 
	C298.879395,65.026482 294.420319,62.873577 293.805939,56.996624 
	C297.812164,56.996624 301.823517,57.322330 305.733307,56.834332 
	C307.270660,56.642448 308.580933,54.631588 310.002502,52.599438 
M184.409592,57.093632 
	C188.236511,57.061035 192.065170,56.944275 195.889816,57.022789 
	C198.885391,57.084286 199.916626,55.732845 200.059097,52.809765 
	C200.369476,46.440830 194.519196,41.807697 187.122925,42.516903 
	C182.049179,43.003407 178.133392,45.871582 177.326279,50.964695 
	C176.482361,56.290112 175.744980,62.186241 181.123260,66.002998 
	C185.936523,69.418793 191.253540,68.895386 196.126678,66.241310 
	C197.677246,65.396828 198.277130,62.806805 199.312042,61.015511 
	C197.430283,61.275536 195.247131,61.012775 193.722244,61.891853 
	C188.795090,64.732307 184.716568,63.070240 184.409592,57.093632 
M220.321045,42.995758 
	C217.466980,43.504101 214.612930,44.012447 211.131500,44.632530 
	C207.240799,41.556252 205.443375,41.933441 204.797394,47.607784 
	C204.188843,52.953266 204.678986,58.433403 204.825775,63.850506 
	C204.882965,65.960632 204.941940,68.831688 208.173157,67.768921 
	C209.448425,67.349464 210.641205,65.046478 210.877029,63.453880 
	C211.311005,60.523426 210.808670,57.466579 211.066803,54.494568 
	C211.355179,51.174591 212.501907,48.016537 216.567444,48.087715 
	C220.704422,48.160149 220.900009,51.495663 220.981445,54.574303 
	C221.060593,57.566307 220.623749,60.630394 221.149750,63.529224 
	C221.444000,65.150841 222.984436,67.383568 224.403320,67.784714 
	C227.122696,68.553543 228.048050,66.407402 228.010941,63.852509 
	C227.952972,59.861267 228.250061,55.847702 227.925446,51.882179 
	C227.578812,47.647888 226.646774,43.488026 220.321045,42.995758 
M51.148418,31.571440 
	C51.148418,41.637917 51.148418,51.704391 51.148418,62.124557 
	C47.793087,62.124557 45.380802,62.124557 42.669319,62.124557 
	C43.335945,64.269737 43.866726,65.977760 44.408657,67.721680 
	C47.052444,67.721680 49.541454,67.876518 52.003223,67.683624 
	C55.296257,67.425598 57.115757,65.626968 57.108162,62.146729 
	C57.080650,49.534950 57.097324,36.923073 57.097324,24.294674 
	C54.932686,24.294674 53.065353,24.294674 51.138355,24.294674 
	C51.138355,26.634947 51.138355,28.615339 51.148418,31.571440 
M281.928131,34.141075 
	C276.222687,33.910122 269.555603,39.829380 269.120178,45.575237 
	C269.074524,46.177849 269.251129,47.212677 269.613220,47.366161 
	C273.004883,48.803822 271.881226,51.753395 271.974426,54.229416 
	C272.099274,57.547756 271.670532,60.934753 272.217499,64.167397 
	C272.458649,65.592606 274.515930,66.710518 275.748688,67.967949 
	C276.831177,66.633453 278.651978,65.398598 278.848236,63.944492 
	C279.310699,60.517632 278.984711,56.986176 279.004761,53.497181 
	C279.019440,50.940823 278.403900,48.464970 282.294464,47.491261 
	C284.865906,46.847679 284.438965,44.487141 282.031067,43.201351 
	C281.104523,42.706604 280.048279,42.454872 278.003998,41.711788 
	C279.939514,40.187847 281.453064,39.454231 282.221069,38.246498 
	C282.835602,37.280090 282.543823,35.737347 281.928131,34.141075 
M127.184052,49.557243 
	C129.107559,48.430859 131.104614,47.403107 132.880524,46.078785 
	C133.168884,45.863747 132.477188,44.334457 132.238510,43.412636 
	C130.019836,44.043179 127.801155,44.673717 126.135887,45.146980 
	C124.313835,44.086514 122.842491,43.230167 121.371155,42.373821 
	C120.509857,43.970966 118.998138,45.531517 118.905846,47.171936 
	C118.594383,52.707382 118.533012,58.290791 118.959023,63.810867 
	C119.070557,65.256020 121.294617,66.538132 122.548492,67.895119 
	C123.366013,66.323013 124.616203,64.828987 124.916710,63.163593 
	C125.693985,58.855927 126.052368,54.472668 127.184052,49.557243 
M253.004807,39.768089 
	C252.784988,37.452011 253.867065,34.140224 249.976135,34.167210 
	C246.095261,34.194130 247.054504,37.510918 247.029480,39.818245 
	C246.944763,47.630219 246.831009,55.450218 247.136475,63.251171 
	C247.198792,64.842827 249.033890,66.365074 250.051788,67.919319 
	C251.035919,66.331337 252.803619,64.775352 252.869995,63.149899 
	C253.174957,55.681908 253.004639,48.194508 253.004807,39.768089 
M46.054790,29.724886 
	C45.853924,24.721624 42.468571,27.731869 40.228004,26.963993 
	C40.228004,37.181355 40.228004,46.890503 40.228004,56.741501 
	C42.209293,56.741501 43.938854,56.741501 46.051746,56.741501 
	C46.051746,47.885315 46.051746,39.286724 46.054790,29.724886 
M142.868393,45.168941 
	C141.540466,44.524029 140.150635,43.310753 138.907669,43.446106 
	C138.154861,43.528084 137.133453,45.680668 137.087631,46.934216 
	C136.887390,52.414299 136.766724,57.921955 137.145142,63.383026 
	C137.254257,64.957672 139.126328,66.410164 140.190140,67.918655 
	C141.127548,66.449753 142.792267,65.019798 142.873367,63.505051 
	C143.184082,57.702286 142.986099,51.872280 142.868393,45.168941 
M264.978485,64.953705 
	C264.985748,58.966061 265.160400,52.970341 264.872284,46.996952 
	C264.807312,45.650482 263.128906,44.381840 262.193268,43.077354 
	C261.129211,44.419464 259.234741,45.709614 259.146942,47.112816 
	C258.794464,52.745834 258.890930,58.417709 259.087524,64.065964 
	C259.131104,65.318825 260.157288,67.474037 260.908752,67.554520 
	C262.153656,67.687836 263.542786,66.474274 264.978485,64.953705 
M239.769775,62.585415 
	C237.944305,62.477684 236.078445,62.137775 234.324829,62.442917 
	C233.938065,62.510216 233.344818,65.411652 233.914429,66.039818 
	C234.837051,67.057312 237.250366,68.127693 237.940567,67.637085 
	C239.108795,66.806702 239.423828,64.776001 239.769775,62.585415 
M260.082825,33.630310 
	C260.339020,35.548233 260.595215,37.466152 260.851410,39.384075 
	C262.242004,38.860336 264.104401,38.728123 264.928955,37.734604 
	C266.886688,35.375671 265.194580,33.612095 260.082825,33.630310 
M141.595688,39.148857 
	C142.101456,37.667496 142.607239,36.186134 143.113022,34.704777 
	C141.660553,34.218678 140.185791,33.342220 138.765717,33.423317 
	C138.126465,33.459820 136.843124,35.937344 137.159714,36.387386 
	C138.063522,37.672184 139.638046,38.485168 141.595688,39.148857 
z"/>
<path fill="#1CB0B6" opacity="1.000000" stroke="none" 
	d="
M75.979378,25.327948 
	C86.111290,25.327948 96.243210,25.327948 106.796890,25.327948 
	C106.868195,26.759678 106.945366,28.309078 107.030441,30.017292 
	C102.334946,30.223629 97.955635,30.416073 93.576324,30.608517 
	C93.584488,31.398506 93.592651,32.188496 93.600807,32.978485 
	C97.167412,33.192024 100.734009,33.405567 104.668350,33.641125 
	C104.668350,39.857029 104.668350,46.083614 104.668350,52.610817 
	C100.791542,52.941818 96.688835,52.991428 92.763878,53.851883 
	C91.853897,54.051380 91.550453,57.017574 90.651230,59.631123 
	C96.284462,60.556873 101.558136,61.423538 107.078110,62.330677 
	C106.614418,64.172203 106.183220,65.884674 105.578079,68.287971 
	C101.138962,67.509720 96.580574,67.291954 92.467667,65.825081 
	C88.399323,64.374100 85.019135,64.038399 81.422585,66.678886 
	C80.148056,67.614616 78.370476,67.865158 76.626236,68.499947 
	C75.807068,67.042671 75.090393,65.767746 74.297928,63.923576 
	C76.568932,62.459305 78.915718,61.564274 81.450142,60.597679 
	C80.038063,58.854519 79.062271,57.649940 78.086479,56.445358 
	C78.239761,55.913647 78.393044,55.381931 78.546326,54.850216 
	C81.032745,55.122322 83.519173,55.394428 86.334114,55.702484 
	C86.433083,55.227360 86.641716,54.225739 86.939758,52.794876 
	C83.376976,52.794876 80.267540,52.794876 77.205795,52.794876 
	C77.205795,46.251400 77.205795,40.071003 77.205795,33.679893 
	C80.293633,33.679893 82.961037,33.823692 85.596130,33.595058 
	C86.420807,33.523502 87.158379,32.448128 87.935814,31.832245 
	C87.111305,31.269199 86.327477,30.305641 85.454781,30.217009 
	C82.657455,29.932901 79.827255,29.972586 77.011734,29.590731 
	C76.806381,28.567171 76.599037,27.840202 76.255135,26.802896 
	C76.088844,26.268490 76.059105,26.044422 76.025520,25.696373 
	C76.021675,25.572393 75.979378,25.327948 75.979378,25.327948 
z"/>
<path fill="#21B0B6" opacity="1.000000" stroke="none" 
	d="
M30.488888,35.818455 
	C32.742275,36.324245 34.721340,36.482666 37.105736,36.673534 
	C37.105736,38.277130 37.105736,39.974915 37.105736,41.839134 
	C35.061111,41.967327 33.152748,42.086975 30.141630,42.275764 
	C32.839962,45.440342 34.937965,47.900860 37.409389,50.799320 
	C36.748764,52.148357 35.921135,53.838425 34.896042,55.931740 
	C33.279343,54.117882 32.090893,52.784496 30.367229,50.850632 
	C30.367229,56.894318 30.367229,62.365932 30.367229,68.167389 
	C28.096178,68.167389 26.349575,68.167389 24.284897,68.167389 
	C24.284897,63.036835 24.284897,57.943497 24.284897,51.664974 
	C21.871212,55.177021 20.084330,57.777031 18.088810,60.680622 
	C15.231121,57.070454 14.572652,54.386253 17.891502,51.021889 
	C20.106834,48.776173 21.262518,45.485149 23.153358,42.209961 
	C20.392454,42.073902 18.442509,41.977810 16.202330,41.867413 
	C16.202330,40.163113 16.202330,38.576088 16.202330,37.106956 
	C18.302761,34.839870 24.644182,39.450130 23.946930,32.156990 
	C21.748184,32.423050 19.960888,32.639320 17.885843,32.890408 
	C17.302898,31.272139 16.760239,29.765697 16.181671,28.159578 
	C21.879635,26.704920 27.249479,25.043964 32.743809,24.137810 
	C34.096672,23.914686 35.855091,26.150543 37.869305,27.566950 
	C34.482723,30.292339 28.258646,29.274494 30.488888,35.818455 
z"/>
<path fill="#F2F2F2" opacity="1.000000" stroke="none" 
	d="
M155.004837,39.999207 
	C155.004883,42.062447 155.004883,43.689720 155.004883,45.406364 
	C158.035461,44.508923 160.555038,43.268410 163.145615,43.096294 
	C168.934021,42.711716 172.767441,46.537228 172.992615,52.347939 
	C173.050522,53.842422 172.860901,55.357475 173.031616,56.834576 
	C173.572479,61.514198 171.514420,64.941925 167.806198,67.388397 
	C165.277542,69.056641 159.947571,67.957626 156.836823,65.796509 
	C154.551865,66.527428 152.672348,67.128662 150.792816,67.729897 
	C150.194183,65.812279 149.131302,63.907207 149.079086,61.974827 
	C148.877045,54.496910 148.818344,47.002979 149.123840,39.532089 
	C149.199463,37.682503 150.651001,34.498947 151.805862,34.337994 
	C155.647247,33.802612 154.851547,37.190392 155.004837,39.999207 
M155.996338,54.671490 
	C156.065140,59.953648 158.340164,63.578251 161.428192,62.860142 
	C164.995651,62.030540 166.066406,59.327961 166.081161,55.756783 
	C166.096298,52.086864 165.340637,48.733192 161.444153,48.237801 
	C158.091721,47.811584 156.192764,50.370644 155.996338,54.671490 
z"/>
<path fill="#F2F2F2" opacity="1.000000" stroke="none" 
	d="
M309.998566,53.024254 
	C308.580933,54.631588 307.270660,56.642448 305.733307,56.834332 
	C301.823517,57.322330 297.812164,56.996624 293.805939,56.996624 
	C294.420319,62.873577 298.879395,65.026482 303.513397,61.850529 
	C305.546844,60.456898 307.644409,58.622402 309.229462,61.447289 
	C309.690399,62.268753 307.493561,65.552452 305.842316,66.405930 
	C300.907043,68.956734 295.546387,69.390808 290.851044,65.838463 
	C285.861877,62.063824 286.450958,56.313213 287.272095,51.143311 
	C288.070953,46.113529 291.835358,43.407986 296.928711,42.494144 
	C303.629395,41.291920 309.235931,45.526608 309.998566,53.024254 
M295.616302,48.958130 
	C295.246399,50.088455 294.876495,51.218781 294.506622,52.349113 
	C297.564758,52.554211 300.622864,52.759304 304.170135,52.997208 
	C302.014862,47.724785 301.796936,47.625416 295.616302,48.958130 
z"/>
<path fill="#F2F2F2" opacity="1.000000" stroke="none" 
	d="
M184.053223,57.265247 
	C184.716568,63.070240 188.795090,64.732307 193.722244,61.891853 
	C195.247131,61.012775 197.430283,61.275536 199.312042,61.015511 
	C198.277130,62.806805 197.677246,65.396828 196.126678,66.241310 
	C191.253540,68.895386 185.936523,69.418793 181.123260,66.002998 
	C175.744980,62.186241 176.482361,56.290112 177.326279,50.964695 
	C178.133392,45.871582 182.049179,43.003407 187.122925,42.516903 
	C194.519196,41.807697 200.369476,46.440830 200.059097,52.809765 
	C199.916626,55.732845 198.885391,57.084286 195.889816,57.022789 
	C192.065170,56.944275 188.236511,57.061035 184.053223,57.265247 
M193.458282,50.170391 
	C188.852905,46.377136 185.375458,47.225883 184.429337,52.818104 
	C187.621994,52.025898 191.308853,55.344181 193.458282,50.170391 
z"/>
<path fill="#F3F3F3" opacity="1.000000" stroke="none" 
	d="
M220.740295,42.998028 
	C226.646774,43.488026 227.578812,47.647888 227.925446,51.882179 
	C228.250061,55.847702 227.952972,59.861267 228.010941,63.852509 
	C228.048050,66.407402 227.122696,68.553543 224.403320,67.784714 
	C222.984436,67.383568 221.444000,65.150841 221.149750,63.529224 
	C220.623749,60.630394 221.060593,57.566307 220.981445,54.574303 
	C220.900009,51.495663 220.704422,48.160149 216.567444,48.087715 
	C212.501907,48.016537 211.355179,51.174591 211.066803,54.494568 
	C210.808670,57.466579 211.311005,60.523426 210.877029,63.453880 
	C210.641205,65.046478 209.448425,67.349464 208.173157,67.768921 
	C204.941940,68.831688 204.882965,65.960632 204.825775,63.850506 
	C204.678986,58.433403 204.188843,52.953266 204.797394,47.607784 
	C205.443375,41.933441 207.240799,41.556252 211.131500,44.632530 
	C214.612930,44.012447 217.466980,43.504101 220.740295,42.998028 
z"/>
<path fill="#26B1B7" opacity="1.000000" stroke="none" 
	d="
M75.725876,25.066013 
	C75.979378,25.327948 76.021675,25.572393 75.743317,25.954872 
	C70.641350,38.644760 73.348602,51.424938 73.099373,64.019516 
	C72.990746,65.479691 72.882126,66.939873 72.755791,68.638138 
	C70.876167,68.638138 69.139870,68.638138 67.134422,68.638138 
	C67.134422,60.990002 67.134422,53.564274 67.134422,45.450542 
	C65.844849,46.268372 65.050392,46.772205 64.243141,47.284149 
	C61.717358,43.908047 62.100609,41.063797 64.426865,37.465767 
	C67.164345,33.231701 68.716812,28.231491 70.988403,23.099804 
	C72.206116,23.562635 73.839241,24.183357 75.725876,25.066013 
z"/>
<path fill="#21B0B6" opacity="1.000000" stroke="none" 
	d="
M51.143387,31.083588 
	C51.138355,28.615339 51.138355,26.634947 51.138355,24.294674 
	C53.065353,24.294674 54.932686,24.294674 57.097324,24.294674 
	C57.097324,36.923073 57.080650,49.534950 57.108162,62.146729 
	C57.115757,65.626968 55.296257,67.425598 52.003223,67.683624 
	C49.541454,67.876518 47.052444,67.721680 44.408657,67.721680 
	C43.866726,65.977760 43.335945,64.269737 42.669319,62.124557 
	C45.380802,62.124557 47.793087,62.124557 51.148418,62.124557 
	C51.148418,51.704391 51.148418,41.637917 51.143387,31.083588 
z"/>
<path fill="#F2F2F2" opacity="1.000000" stroke="none" 
	d="
M282.291199,34.295731 
	C282.543823,35.737347 282.835602,37.280090 282.221069,38.246498 
	C281.453064,39.454231 279.939514,40.187847 278.003998,41.711788 
	C280.048279,42.454872 281.104523,42.706604 282.031067,43.201351 
	C284.438965,44.487141 284.865906,46.847679 282.294464,47.491261 
	C278.403900,48.464970 279.019440,50.940823 279.004761,53.497181 
	C278.984711,56.986176 279.310699,60.517632 278.848236,63.944492 
	C278.651978,65.398598 276.831177,66.633453 275.748688,67.967941 
	C274.515930,66.710518 272.458649,65.592606 272.217499,64.167397 
	C271.670532,60.934753 272.099274,57.547756 271.974426,54.229416 
	C271.881226,51.753395 273.004883,48.803822 269.613220,47.366161 
	C269.251129,47.212677 269.074524,46.177849 269.120178,45.575237 
	C269.555603,39.829380 276.222687,33.910122 282.291199,34.295731 
z"/>
<path fill="#E8F3F4" opacity="1.000000" stroke="none" 
	d="
M73.302811,64.019295 
	C73.348602,51.424938 70.641350,38.644760 75.747162,26.078850 
	C76.059105,26.044422 76.088844,26.268490 76.166245,27.109196 
	C76.479187,28.446327 76.744461,29.166824 77.009735,29.887321 
	C79.827255,29.972586 82.657455,29.932901 85.454781,30.217009 
	C86.327477,30.305641 87.111305,31.269199 87.935814,31.832245 
	C87.158379,32.448128 86.420807,33.523502 85.596130,33.595058 
	C82.961037,33.823692 80.293633,33.679893 77.205795,33.679893 
	C77.205795,40.071003 77.205795,46.251400 77.205795,52.794876 
	C80.267540,52.794876 83.376976,52.794876 86.939758,52.794876 
	C86.641716,54.225739 86.433083,55.227360 86.334114,55.702484 
	C83.519173,55.394428 81.032745,55.122322 78.546326,54.850216 
	C78.393044,55.381931 78.239761,55.913647 78.086479,56.445358 
	C79.062271,57.649940 80.038063,58.854519 81.450142,60.597679 
	C78.915718,61.564274 76.568932,62.459305 74.067612,63.684185 
	C73.913071,64.014030 73.506241,64.019073 73.302811,64.019295 
z"/>
<path fill="#F3F3F3" opacity="1.000000" stroke="none" 
	d="
M126.881035,49.838421 
	C126.052368,54.472668 125.693985,58.855927 124.916710,63.163593 
	C124.616203,64.828987 123.366013,66.323013 122.548492,67.895119 
	C121.294617,66.538132 119.070557,65.256020 118.959023,63.810867 
	C118.533012,58.290791 118.594383,52.707382 118.905846,47.171936 
	C118.998138,45.531517 120.509857,43.970966 121.371155,42.373821 
	C122.842491,43.230167 124.313835,44.086514 126.135887,45.146980 
	C127.801155,44.673717 130.019836,44.043179 132.238510,43.412636 
	C132.477188,44.334457 133.168884,45.863747 132.880524,46.078785 
	C131.104614,47.403107 129.107559,48.430859 126.881035,49.838421 
z"/>
<path fill="#F2F2F2" opacity="1.000000" stroke="none" 
	d="
M253.004852,40.241081 
	C253.004639,48.194508 253.174957,55.681908 252.869995,63.149899 
	C252.803619,64.775352 251.035919,66.331337 250.051788,67.919319 
	C249.033890,66.365074 247.198792,64.842827 247.136475,63.251171 
	C246.831009,55.450218 246.944763,47.630219 247.029480,39.818245 
	C247.054504,37.510918 246.095261,34.194130 249.976135,34.167210 
	C253.867065,34.140224 252.784988,37.452011 253.004852,40.241081 
z"/>
<path fill="#18AFB5" opacity="1.000000" stroke="none" 
	d="
M46.053268,30.206509 
	C46.051746,39.286724 46.051746,47.885315 46.051746,56.741501 
	C43.938854,56.741501 42.209293,56.741501 40.228004,56.741501 
	C40.228004,46.890503 40.228004,37.181355 40.228004,26.963993 
	C42.468571,27.731869 45.853924,24.721624 46.053268,30.206509 
z"/>
<path fill="#F2F2F2" opacity="1.000000" stroke="none" 
	d="
M142.923187,45.610695 
	C142.986099,51.872280 143.184082,57.702286 142.873367,63.505051 
	C142.792267,65.019798 141.127548,66.449753 140.190140,67.918655 
	C139.126328,66.410164 137.254257,64.957672 137.145142,63.383026 
	C136.766724,57.921955 136.887390,52.414299 137.087631,46.934216 
	C137.133453,45.680668 138.154861,43.528084 138.907669,43.446106 
	C140.150635,43.310753 141.540466,44.524029 142.923187,45.610695 
z"/>
<path fill="#F2F2F2" opacity="1.000000" stroke="none" 
	d="
M264.924805,65.390930 
	C263.542786,66.474274 262.153656,67.687836 260.908752,67.554520 
	C260.157288,67.474037 259.131104,65.318825 259.087524,64.065964 
	C258.890930,58.417709 258.794464,52.745834 259.146942,47.112816 
	C259.234741,45.709614 261.129211,44.419464 262.193268,43.077362 
	C263.128906,44.381840 264.807312,45.650482 264.872284,46.996952 
	C265.160400,52.970341 264.985748,58.966061 264.924805,65.390930 
z"/>
<path fill="#F3F3F3" opacity="1.000000" stroke="none" 
	d="
M239.933655,62.917664 
	C239.423828,64.776001 239.108795,66.806702 237.940567,67.637085 
	C237.250366,68.127693 234.837051,67.057312 233.914429,66.039818 
	C233.344818,65.411652 233.938065,62.510216 234.324829,62.442917 
	C236.078445,62.137775 237.944305,62.477684 239.933655,62.917664 
z"/>
<path fill="#F3F3F3" opacity="1.000000" stroke="none" 
	d="
M260.417419,33.435490 
	C265.194580,33.612095 266.886688,35.375671 264.928955,37.734604 
	C264.104401,38.728123 262.242004,38.860336 260.851410,39.384071 
	C260.595215,37.466152 260.339020,35.548233 260.417419,33.435490 
z"/>
<path fill="#F3F3F3" opacity="1.000000" stroke="none" 
	d="
M141.272202,39.316307 
	C139.638046,38.485168 138.063522,37.672184 137.159714,36.387386 
	C136.843124,35.937344 138.126465,33.459820 138.765717,33.423317 
	C140.185791,33.342220 141.660553,34.218678 143.113022,34.704777 
	C142.607239,36.186134 142.101456,37.667496 141.272202,39.316307 
z"/>
<path fill="#26B1B7" opacity="1.000000" stroke="none" 
	d="
M77.011734,29.590731 
	C76.744461,29.166824 76.479187,28.446327 76.302795,27.419533 
	C76.599037,27.840202 76.806381,28.567171 77.011734,29.590731 
z"/>
<path fill="#FFFFFF" opacity="1.000000" stroke="none" 
	d="
M155.998596,54.254196 
	C156.192764,50.370644 158.091721,47.811584 161.444153,48.237801 
	C165.340637,48.733192 166.096298,52.086864 166.081161,55.756783 
	C166.066406,59.327961 164.995651,62.030540 161.428192,62.860142 
	C158.340164,63.578251 156.065140,59.953648 155.998596,54.254196 
z"/>
<path fill="#FEFFFF" opacity="1.000000" stroke="none" 
	d="
M295.938232,48.717388 
	C301.796936,47.625416 302.014862,47.724785 304.170135,52.997208 
	C300.622864,52.759304 297.564758,52.554211 294.506592,52.349110 
	C294.876495,51.218781 295.246399,50.088455 295.938232,48.717388 
z"/>
<path fill="#FEFFFF" opacity="1.000000" stroke="none" 
	d="
M193.617737,50.535149 
	C191.308853,55.344181 187.621994,52.025898 184.429337,52.818104 
	C185.375458,47.225883 188.852905,46.377136 193.617737,50.535149 
z"/>
</svg>